<?xml version="1.0" encoding="utf-8" standalone="no"?>
<svg
	baseProfile="full"
	height="100%"
	version="1.1"
	viewBox="-10 -10 816 531"
	width="100%"
	xmlns="http://www.w3.org/2000/svg"
	xmlns:ev="http://www.w3.org/2001/xml-events"
	xmlns:xlink="http://www.w3.org/1999/xlink">

	<g>

		<polygon
			fill="rgb(229, 229, 229)"
			points="113, 13 745, 13 745, 511 113, 511 113, 13 "
			stroke="rgb(0, 0, 0)"
			stroke-width="1.046154"
			style="stroke-linejoin:bevel;stroke-linecap:square;"/>

		<text
			fill="rgb(0, 0, 0)"
			font-family="Arial"
			font-size="10.461539"
			text-anchor="middle"
			x="429"
			y="24.730770">
			Friendlist Manager
		</text>

	</g>

	<text
		fill="rgb(0, 0, 0)"
		font-family="Arial"
		font-size="10.461539"
		text-anchor="end"
		x="745"
		y="5.807692">
		This System
	</text>

	<g>

		<path
			d="M 326.000000 58.000000 A 65 19 0 1 1 325.999968 57.981000 "
			fill="rgb(229, 229, 229)"
			stroke="rgb(0, 0, 0)"
			stroke-width="1.046154"
			style="stroke-linejoin:bevel;stroke-linecap:square;"/>

		<text
			fill="rgb(0, 0, 0)"
			font-family="Arial"
			font-size="10.461539"
			text-anchor="middle"
			x="261"
			y="61.269231">
			Search Username
		</text>

	</g>

	<g>

		<path
			d="M 323.000000 132.000000 A 63 18 0 1 1 322.999969 131.982000 "
			fill="rgb(229, 229, 229)"
			stroke="rgb(0, 0, 0)"
			stroke-width="1.046154"
			style="stroke-linejoin:bevel;stroke-linecap:square;"/>

		<text
			fill="rgb(0, 0, 0)"
			font-family="Arial"
			font-size="10.461539"
			text-anchor="middle"
			x="260"
			y="135.269231">
			View Profile
		</text>

	</g>

	<g>

		<path
			d="M 328.000000 202.000000 A 67 20 0 1 1 327.999967 201.980000 "
			fill="rgb(229, 229, 229)"
			stroke="rgb(0, 0, 0)"
			stroke-width="1.046154"
			style="stroke-linejoin:bevel;stroke-linecap:square;"/>

		<text
			fill="rgb(0, 0, 0)"
			font-family="Arial"
			font-size="10.461539"
			text-anchor="middle"
			x="261"
			y="205.269231">
			View Friendlist
		</text>

	</g>

	<g>

		<path
			d="M 332.000000 274.000000 A 68 20 0 1 1 331.999966 273.980000 "
			fill="rgb(229, 229, 229)"
			stroke="rgb(0, 0, 0)"
			stroke-width="1.046154"
			style="stroke-linejoin:bevel;stroke-linecap:square;"/>

		<text
			fill="rgb(0, 0, 0)"
			font-family="Arial"
			font-size="10.461539"
			text-anchor="middle"
			x="264"
			y="277.269231">
			View Friend Requests
		</text>

	</g>

	<g>

		<path
			d="M 334.000000 419.000000 A 68 20 0 1 1 333.999966 418.980000 "
			fill="rgb(229, 229, 229)"
			stroke="rgb(0, 0, 0)"
			stroke-width="1.046154"
			style="stroke-linejoin:bevel;stroke-linecap:square;"/>

		<text
			fill="rgb(0, 0, 0)"
			font-family="Arial"
			font-size="10.461539"
			text-anchor="middle"
			x="266"
			y="422.269231">
			View Quests
		</text>

	</g>

	<g>

		<path
			d="M 538.000000 56.000000 A 67 19 0 1 1 537.999967 55.981000 "
			fill="rgb(229, 229, 229)"
			stroke="rgb(0, 0, 0)"
			stroke-width="1.046154"
			style="stroke-linejoin:bevel;stroke-linecap:square;"/>

		<text
			fill="rgb(0, 0, 0)"
			font-family="Arial"
			font-size="10.461539"
			text-anchor="middle"
			x="471"
			y="59.269231">
			Send Friend Request
		</text>

	</g>

	<g>

		<path
			d="M 720.000000 119.000000 A 67 19 0 1 1 719.999967 118.981000 "
			fill="rgb(229, 229, 229)"
			stroke="rgb(0, 0, 0)"
			stroke-width="1.046154"
			style="stroke-linejoin:bevel;stroke-linecap:square;"/>

		<text
			fill="rgb(0, 0, 0)"
			font-family="Arial"
			font-size="10.461539"
			text-anchor="middle"
			x="653"
			y="122.269231">
			Delete Friend
		</text>

	</g>

	<g>

		<path
			d="M 720.000000 202.000000 A 66 22 0 1 1 719.999967 201.978000 "
			fill="rgb(229, 229, 229)"
			stroke="rgb(0, 0, 0)"
			stroke-width="1.046154"
			style="stroke-linejoin:bevel;stroke-linecap:square;"/>

		<text
			fill="rgb(0, 0, 0)"
			font-family="Arial"
			font-size="10.461539"
			text-anchor="middle"
			x="654"
			y="205.269231">
			Start Friend Quest
		</text>

	</g>

	<g>

		<path
			d="M 723.000000 272.000000 A 68 22 0 1 1 722.999966 271.978000 "
			fill="rgb(229, 229, 229)"
			stroke="rgb(0, 0, 0)"
			stroke-width="1.046154"
			style="stroke-linejoin:bevel;stroke-linecap:square;"/>

		<text
			fill="rgb(0, 0, 0)"
			font-family="Arial"
			font-size="10.461539"
			text-anchor="middle"
			x="655"
			y="275.269231">
			Accept Request
		</text>

	</g>

	<g>

		<path
			d="M 723.000000 401.000000 A 69 21 0 1 1 722.999966 400.979000 "
			fill="rgb(229, 229, 229)"
			stroke="rgb(0, 0, 0)"
			stroke-width="1.046154"
			style="stroke-linejoin:bevel;stroke-linecap:square;"/>

		<text
			fill="rgb(0, 0, 0)"
			font-family="Arial"
			font-size="10.461539"
			text-anchor="middle"
			x="654"
			y="404.269231">
			Delete Quest
		</text>

	</g>

	<g>

		<path
			d="M 726.000000 460.000000 A 70 22 0 1 1 725.999965 459.978000 "
			fill="rgb(229, 229, 229)"
			stroke="rgb(0, 0, 0)"
			stroke-width="1.046154"
			style="stroke-linejoin:bevel;stroke-linecap:square;"/>

		<text
			fill="rgb(0, 0, 0)"
			font-family="Arial"
			font-size="10.461539"
			text-anchor="middle"
			x="656"
			y="463.269231">
			Accept Quest Request
		</text>

	</g>

	<g>

		<path
			d="M 723.000000 326.000000 A 68 22 0 1 1 722.999966 325.978000 "
			fill="rgb(229, 229, 229)"
			stroke="rgb(0, 0, 0)"
			stroke-width="1.046154"
			style="stroke-linejoin:bevel;stroke-linecap:square;"/>

		<text
			fill="rgb(0, 0, 0)"
			font-family="Arial"
			font-size="10.461539"
			text-anchor="middle"
			x="655"
			y="329.269231">
			Decline Request
		</text>

	</g>

	<g>

		<polygon
			fill="rgb(0, 0, 0)"
			points="24, 126 24, 132 0, 132 0, 136 24, 136 24, 143 11, 161 16, 161 26, 146 36, 161 41, 161 28, 143 28, 136 52, 136 52, 132 28, 132 28, 126 "
			stroke="none"
			stroke-width="1.046154"
			style="stroke-linejoin:bevel;stroke-linecap:square;"/>

		<path
			d="M 35.000000 119.500000 A 9 8 0 1 1 34.999996 119.491500 "
			fill="rgb(0, 0, 0)"
			stroke="none"
			stroke-width="1.046154"
			style="stroke-linejoin:bevel;stroke-linecap:square;"/>

		<path
			d="M 30.000000 120.000000 A 4 4 0 1 1 29.999998 119.996000 "
			fill="rgb(229, 229, 229)"
			stroke="none"
			stroke-width="1.046154"
			style="stroke-linejoin:bevel;stroke-linecap:square;"/>

		<text
			fill="rgb(0, 0, 0)"
			font-family="Arial"
			font-size="10.461539"
			text-anchor="middle"
			x="26"
			y="175.730770">
			User
		</text>

	</g>

	<g>

		<line
			fill="rgb(0, 0, 0)"
			stroke="rgb(0, 0, 0)"
			stroke-width="1.046154"
			style="stroke-linejoin:bevel;stroke-linecap:square;"
			x1="324"
			x2="339"
			y1="56"
			y2="49"/>

		<line
			fill="rgb(0, 0, 0)"
			stroke="rgb(0, 0, 0)"
			stroke-width="1.046154"
			style="stroke-linejoin:bevel;stroke-linecap:square;"
			x1="339"
			x2="324"
			y1="64"
			y2="56"/>

		<polyline
			fill="none"
			points="405, 56 398, 56 398, 56 396, 56 395, 56 393, 56 391, 56 389, 56 387, 56 385, 56 383, 56 380, 56 378, 56 376, 56 374, 56 373, 56 371, 56 371, 56 365, 56 365, 56 358, 56 358, 56 356, 56 352, 56 348, 56 345, 56 341, 56 338, 56 334, 56 331, 56 331, 56 324, 56 "
			stroke="rgb(0, 0, 0)"
			stroke-dasharray="20.923077, 10.461539"
			stroke-width="1.046154"
			style="stroke-linejoin:bevel;stroke-linecap:square;"/>

		<text
			fill="rgb(0, 0, 0)"
			font-family="Arial"
			font-size="10.461539"
			text-anchor="middle"
			x="371"
			y="55.269231">
			«extend»
		</text>

	</g>

	<g>

		<line
			fill="rgb(0, 0, 0)"
			stroke="rgb(0, 0, 0)"
			stroke-width="1.046154"
			style="stroke-linejoin:bevel;stroke-linecap:square;"
			x1="262"
			x2="269"
			y1="77"
			y2="92"/>

		<line
			fill="rgb(0, 0, 0)"
			stroke="rgb(0, 0, 0)"
			stroke-width="1.046154"
			style="stroke-linejoin:bevel;stroke-linecap:square;"
			x1="254"
			x2="262"
			y1="92"
			y2="77"/>

		<polyline
			fill="none"
			points="262, 114 262, 111 262, 111 262, 110 262, 110 262, 109 262, 108 262, 107 262, 106 262, 105 262, 104 262, 103 262, 102 262, 101 262, 101 262, 100 262, 99 262, 99 262, 96 262, 96 262, 92 262, 92 262, 92 262, 90 262, 88 262, 87 262, 84 262, 83 262, 82 262, 80 262, 80 262, 77 "
			stroke="rgb(0, 0, 0)"
			stroke-dasharray="20.923077, 10.461539"
			stroke-width="1.046154"
			style="stroke-linejoin:bevel;stroke-linecap:square;"/>

		<text
			fill="rgb(0, 0, 0)"
			font-family="Arial"
			font-size="10.461539"
			text-anchor="middle"
			x="262"
			y="98.269231">
			«extend»
		</text>

	</g>

	<g>

		<polyline
			fill="none"
			points="52, 132 65, 127 65, 127 69, 124 75, 121 82, 118 89, 114 96, 111 102, 108 108, 105 113, 102 113, 102 125, 96 125, 96 137, 91 137, 91 142, 87 148, 85 154, 82 161, 78 168, 74 174, 71 180, 69 185, 66 185, 66 197, 60 "
			stroke="rgb(0, 0, 0)"
			stroke-width="1.046154"
			style="stroke-linejoin:bevel;stroke-linecap:square;"/>

	</g>

	<g>

		<polyline
			fill="none"
			points="51, 136 64, 142 64, 142 69, 144 74, 146 81, 150 87, 153 94, 155 101, 159 106, 161 111, 163 111, 163 123, 168 123, 168 136, 173 136, 173 141, 176 146, 178 153, 181 159, 184 166, 187 172, 190 178, 192 183, 195 183, 195 195, 199 "
			stroke="rgb(0, 0, 0)"
			stroke-width="1.046154"
			style="stroke-linejoin:bevel;stroke-linecap:square;"/>

	</g>

	<g>

		<line
			fill="rgb(0, 0, 0)"
			stroke="rgb(0, 0, 0)"
			stroke-width="1.046154"
			style="stroke-linejoin:bevel;stroke-linecap:square;"
			x1="327"
			x2="342"
			y1="201"
			y2="194"/>

		<line
			fill="rgb(0, 0, 0)"
			stroke="rgb(0, 0, 0)"
			stroke-width="1.046154"
			style="stroke-linejoin:bevel;stroke-linecap:square;"
			x1="342"
			x2="327"
			y1="208"
			y2="201"/>

		<polyline
			fill="none"
			points="588, 201 566, 201 566, 201 561, 201 557, 201 550, 201 544, 201 537, 201 530, 201 523, 201 517, 201 509, 201 503, 201 496, 201 490, 201 485, 201 480, 201 480, 201 458, 201 458, 201 436, 201 436, 201 427, 201 416, 201 405, 201 392, 201 380, 201 369, 201 358, 201 349, 201 349, 201 327, 201 "
			stroke="rgb(0, 0, 0)"
			stroke-dasharray="20.923077, 10.461539"
			stroke-width="1.046154"
			style="stroke-linejoin:bevel;stroke-linecap:square;"/>

		<text
			fill="rgb(0, 0, 0)"
			font-family="Arial"
			font-size="10.461539"
			text-anchor="middle"
			x="480"
			y="200.269231">
			«extend»
		</text>

	</g>

	<g>

		<line
			fill="rgb(0, 0, 0)"
			stroke="rgb(0, 0, 0)"
			stroke-width="1.046154"
			style="stroke-linejoin:bevel;stroke-linecap:square;"
			x1="320"
			x2="332"
			y1="192"
			y2="181"/>

		<line
			fill="rgb(0, 0, 0)"
			stroke="rgb(0, 0, 0)"
			stroke-width="1.046154"
			style="stroke-linejoin:bevel;stroke-linecap:square;"
			x1="336"
			x2="320"
			y1="195"
			y2="192"/>

		<polyline
			fill="none"
			points="587, 119 565, 126 565, 126 559, 127 554, 128 548, 130 541, 132 534, 134 527, 136 520, 138 512, 140 506, 141 499, 144 492, 145 486, 147 481, 149 475, 150 475, 150 453, 156 453, 156 431, 162 431, 162 422, 164 410, 168 399, 171 387, 174 374, 177 362, 181 351, 184 342, 186 342, 186 320, 192 "
			stroke="rgb(0, 0, 0)"
			stroke-dasharray="20.923077, 10.461539"
			stroke-width="1.046154"
			style="stroke-linejoin:bevel;stroke-linecap:square;"/>

		<text
			fill="rgb(0, 0, 0)"
			font-family="Arial"
			font-size="10.461539"
			text-anchor="middle"
			x="475"
			y="149.269231">
			«extend»
		</text>

	</g>

	<g>

		<line
			fill="rgb(0, 0, 0)"
			stroke="rgb(0, 0, 0)"
			stroke-width="1.046154"
			style="stroke-linejoin:bevel;stroke-linecap:square;"
			x1="332"
			x2="347"
			y1="273"
			y2="266"/>

		<line
			fill="rgb(0, 0, 0)"
			stroke="rgb(0, 0, 0)"
			stroke-width="1.046154"
			style="stroke-linejoin:bevel;stroke-linecap:square;"
			x1="347"
			x2="332"
			y1="280"
			y2="273"/>

		<polyline
			fill="none"
			points="588, 273 567, 273 567, 273 562, 273 557, 273 551, 273 544, 273 538, 273 531, 273 525, 273 517, 273 511, 273 504, 273 498, 273 492, 273 486, 273 481, 273 481, 273 460, 273 460, 273 439, 273 439, 273 430, 273 419, 273 408, 273 396, 273 384, 273 373, 273 362, 273 353, 273 353, 273 332, 273 "
			stroke="rgb(0, 0, 0)"
			stroke-dasharray="20.923077, 10.461539"
			stroke-width="1.046154"
			style="stroke-linejoin:bevel;stroke-linecap:square;"/>

		<text
			fill="rgb(0, 0, 0)"
			font-family="Arial"
			font-size="10.461539"
			text-anchor="middle"
			x="481"
			y="272.269231">
			«extend»
		</text>

	</g>

	<g>

		<polyline
			fill="none"
			points="48, 149 60, 159 60, 159 65, 163 70, 167 76, 172 83, 177 88, 182 95, 187 101, 192 105, 196 110, 200 123, 210 123, 210 135, 221 135, 221 140, 225 146, 230 153, 235 159, 241 166, 247 172, 252 179, 257 184, 262 184, 262 196, 271 "
			stroke="rgb(0, 0, 0)"
			stroke-width="1.046154"
			style="stroke-linejoin:bevel;stroke-linecap:square;"/>

	</g>

	<g>

		<polyline
			fill="none"
			points="44, 155 57, 177 57, 177 60, 182 64, 187 67, 194 71, 200 74, 207 79, 213 83, 221 87, 227 92, 234 96, 241 99, 247 103, 253 106, 259 109, 264 109, 264 122, 285 122, 285 135, 307 135, 307 140, 316 146, 327 153, 338 160, 351 168, 362 174, 374 181, 385 186, 394 186, 394 199, 415 "
			stroke="rgb(0, 0, 0)"
			stroke-width="1.046154"
			style="stroke-linejoin:bevel;stroke-linecap:square;"/>

	</g>

	<g>

		<line
			fill="rgb(0, 0, 0)"
			stroke="rgb(0, 0, 0)"
			stroke-width="1.046154"
			style="stroke-linejoin:bevel;stroke-linecap:square;"
			x1="333"
			x2="347"
			y1="421"
			y2="413"/>

		<line
			fill="rgb(0, 0, 0)"
			stroke="rgb(0, 0, 0)"
			stroke-width="1.046154"
			style="stroke-linejoin:bevel;stroke-linecap:square;"
			x1="349"
			x2="333"
			y1="427"
			y2="421"/>

		<polyline
			fill="none"
			points="584, 401 563, 403 563, 403 559, 404 553, 404 548, 405 541, 405 535, 405 528, 405 521, 406 515, 407 508, 407 502, 408 495, 409 490, 409 485, 409 480, 409 480, 409 459, 411 459, 411 438, 413 438, 413 429, 414 418, 414 408, 415 396, 416 384, 417 374, 418 363, 418 355, 419 355, 419 333, 421 "
			stroke="rgb(0, 0, 0)"
			stroke-dasharray="20.923077, 10.461539"
			stroke-width="1.046154"
			style="stroke-linejoin:bevel;stroke-linecap:square;"/>

		<text
			fill="rgb(0, 0, 0)"
			font-family="Arial"
			font-size="10.461539"
			text-anchor="middle"
			x="480"
			y="408.269231">
			«extend»
		</text>

	</g>

	<g>

		<line
			fill="rgb(0, 0, 0)"
			stroke="rgb(0, 0, 0)"
			stroke-width="1.046154"
			style="stroke-linejoin:bevel;stroke-linecap:square;"
			x1="330"
			x2="346"
			y1="426"
			y2="421"/>

		<line
			fill="rgb(0, 0, 0)"
			stroke="rgb(0, 0, 0)"
			stroke-width="1.046154"
			style="stroke-linejoin:bevel;stroke-linecap:square;"
			x1="344"
			x2="330"
			y1="435"
			y2="426"/>

		<polyline
			fill="none"
			points="587, 463 566, 459 566, 459 561, 459 555, 458 549, 457 543, 456 536, 455 530, 454 523, 454 516, 452 509, 451 503, 450 496, 450 490, 449 485, 448 480, 447 480, 447 459, 444 459, 444 437, 441 437, 441 428, 440 418, 438 406, 436 395, 435 383, 433 371, 432 360, 430 351, 429 351, 429 330, 426 "
			stroke="rgb(0, 0, 0)"
			stroke-dasharray="20.923077, 10.461539"
			stroke-width="1.046154"
			style="stroke-linejoin:bevel;stroke-linecap:square;"/>

		<text
			fill="rgb(0, 0, 0)"
			font-family="Arial"
			font-size="10.461539"
			text-anchor="middle"
			x="480"
			y="446.269231">
			«extend»
		</text>

	</g>

	<g>

		<line
			fill="rgb(0, 0, 0)"
			stroke="rgb(0, 0, 0)"
			stroke-width="1.046154"
			style="stroke-linejoin:bevel;stroke-linecap:square;"
			x1="332"
			x2="347"
			y1="276"
			y2="272"/>

		<line
			fill="rgb(0, 0, 0)"
			stroke="rgb(0, 0, 0)"
			stroke-width="1.046154"
			style="stroke-linejoin:bevel;stroke-linecap:square;"
			x1="345"
			x2="332"
			y1="286"
			y2="276"/>

		<polyline
			fill="none"
			points="588, 329 566, 324 566, 324 561, 324 556, 322 550, 321 544, 320 537, 318 530, 317 524, 315 517, 314 510, 313 503, 311 497, 310 491, 309 485, 308 481, 306 481, 306 459, 302 459, 302 438, 298 438, 298 429, 297 419, 294 408, 292 396, 289 384, 287 373, 284 362, 283 353, 280 353, 280 332, 276 "
			stroke="rgb(0, 0, 0)"
			stroke-dasharray="20.923077, 10.461539"
			stroke-width="1.046154"
			style="stroke-linejoin:bevel;stroke-linecap:square;"/>

		<text
			fill="rgb(0, 0, 0)"
			font-family="Arial"
			font-size="10.461539"
			text-anchor="middle"
			x="481"
			y="305.269231">
			«extend»
		</text>

	</g>

	<g>

		<line
			fill="rgb(0, 0, 0)"
			stroke="rgb(0, 0, 0)"
			stroke-width="1.046154"
			style="stroke-linejoin:bevel;stroke-linecap:square;"
			x1="333"
			x2="346"
			y1="418"
			y2="408"/>

		<line
			fill="rgb(0, 0, 0)"
			stroke="rgb(0, 0, 0)"
			stroke-width="1.046154"
			style="stroke-linejoin:bevel;stroke-linecap:square;"
			x1="350"
			x2="333"
			y1="422"
			y2="418"/>

		<polyline
			fill="none"
			points="593, 209 584, 232 584, 232 582, 238 579, 244 577, 250 575, 257 571, 264 568, 272 564, 280 560, 288 556, 296 551, 303 546, 311 541, 319 535, 326 529, 333 529, 333 517, 344 505, 354 492, 362 478, 369 464, 376 450, 382 437, 387 423, 391 423, 391 411, 396 399, 400 388, 403 378, 406 369, 409 360, 411 353, 413 347, 414 347, 414 333, 418 "
			stroke="rgb(0, 0, 0)"
			stroke-dasharray="20.923077, 10.461539"
			stroke-width="1.046154"
			style="stroke-linejoin:bevel;stroke-linecap:square;"/>

		<text
			fill="rgb(0, 0, 0)"
			font-family="Arial"
			font-size="10.461539"
			text-anchor="middle"
			x="517"
			y="343.269231">
			«extend»
		</text>

	</g>

</svg>

