<?xml version="1.0" encoding="utf-8" standalone="no"?>
<svg
	baseProfile="full"
	height="100%"
	version="1.1"
	viewBox="-10 -10 828 397"
	width="100%"
	xmlns="http://www.w3.org/2000/svg"
	xmlns:ev="http://www.w3.org/2001/xml-events"
	xmlns:xlink="http://www.w3.org/1999/xlink">

	<g>

		<polygon
			fill="rgb(0, 0, 0)"
			points="14, 134 14, 137 1, 137 1, 139 14, 139 14, 143 6, 153 9, 153 15, 145 21, 153 24, 153 16, 143 16, 139 29, 139 29, 137 16, 137 16, 134 "
			stroke="none"
			stroke-width="0.580492"
			style="stroke-linejoin:bevel;stroke-linecap:square;"/>

		<path
			d="M 20.000000 130.000000 A 5 5 0 1 1 19.999998 129.995000 "
			fill="rgb(0, 0, 0)"
			stroke="none"
			stroke-width="0.580492"
			style="stroke-linejoin:bevel;stroke-linecap:square;"/>

		<path
			d="M 17.000000 130.500000 A 2 2 0 1 1 16.999999 130.497500 "
			fill="rgb(229, 229, 229)"
			stroke="none"
			stroke-width="0.580492"
			style="stroke-linejoin:bevel;stroke-linecap:square;"/>

		<text
			fill="rgb(0, 0, 0)"
			font-family="Arial"
			font-size="5.804919"
			text-anchor="middle"
			x="15"
			y="160.618956">
			User
		</text>

	</g>

	<g>

		<polygon
			fill="rgb(229, 229, 229)"
			points="56, 7 756, 7 756, 377 56, 377 56, 7 "
			stroke="rgb(0, 0, 0)"
			stroke-width="0.580492"
			style="stroke-linejoin:bevel;stroke-linecap:square;"/>

		<text
			fill="rgb(0, 0, 0)"
			font-family="Arial"
			font-size="5.804919"
			text-anchor="middle"
			x="406"
			y="13.618956">
			To-Do-List Manager
		</text>

	</g>

	<text
		fill="rgb(0, 0, 0)"
		font-family="Arial"
		font-size="5.804919"
		text-anchor="end"
		x="756"
		y="3.009118">
		This System
	</text>

	<g>

		<path
			d="M 332.000000 40.000000 A 68 16 0 1 1 331.999966 39.984000 "
			fill="rgb(229, 229, 229)"
			stroke="rgb(0, 0, 0)"
			stroke-width="0.580492"
			style="stroke-linejoin:bevel;stroke-linecap:square;"/>

		<text
			fill="rgb(0, 0, 0)"
			font-family="Arial"
			font-size="5.804919"
			text-anchor="middle"
			x="264"
			y="41.814037">
			Create To-Do-List
		</text>

	</g>

	<g>

		<path
			d="M 328.000000 131.000000 A 65 18 0 1 1 327.999968 130.982000 "
			fill="rgb(229, 229, 229)"
			stroke="rgb(0, 0, 0)"
			stroke-width="0.580492"
			style="stroke-linejoin:bevel;stroke-linecap:square;"/>

		<text
			fill="rgb(0, 0, 0)"
			font-family="Arial"
			font-size="5.804919"
			text-anchor="middle"
			x="263"
			y="132.814037">
			Edit To-Do-List
		</text>

	</g>

	<g>

		<path
			d="M 330.000000 186.000000 A 66 17 0 1 1 329.999967 185.983000 "
			fill="rgb(229, 229, 229)"
			stroke="rgb(0, 0, 0)"
			stroke-width="0.580492"
			style="stroke-linejoin:bevel;stroke-linecap:square;"/>

		<text
			fill="rgb(0, 0, 0)"
			font-family="Arial"
			font-size="5.804919"
			text-anchor="middle"
			x="264"
			y="187.814037">
			Delete To-Do-List
		</text>

	</g>

	<g>

		<path
			d="M 329.000000 237.000000 A 64 18 0 1 1 328.999968 236.982000 "
			fill="rgb(229, 229, 229)"
			stroke="rgb(0, 0, 0)"
			stroke-width="0.580492"
			style="stroke-linejoin:bevel;stroke-linecap:square;"/>

		<text
			fill="rgb(0, 0, 0)"
			font-family="Arial"
			font-size="5.804919"
			text-anchor="middle"
			x="265"
			y="238.814037">
			Select Done
		</text>

	</g>

	<g>

		<path
			d="M 331.000000 287.000000 A 65 18 0 1 1 330.999968 286.982000 "
			fill="rgb(229, 229, 229)"
			stroke="rgb(0, 0, 0)"
			stroke-width="0.580492"
			style="stroke-linejoin:bevel;stroke-linecap:square;"/>

		<text
			fill="rgb(0, 0, 0)"
			font-family="Arial"
			font-size="5.804919"
			text-anchor="middle"
			x="266"
			y="288.814037">
			Unselect Done
		</text>

	</g>

	<g>

		<path
			d="M 332.000000 335.000000 A 64 19 0 1 1 331.999968 334.981000 "
			fill="rgb(229, 229, 229)"
			stroke="rgb(0, 0, 0)"
			stroke-width="0.580492"
			style="stroke-linejoin:bevel;stroke-linecap:square;"/>

		<text
			fill="rgb(0, 0, 0)"
			font-family="Arial"
			font-size="5.804919"
			text-anchor="middle"
			x="268"
			y="336.814037">
			Finish To-Do-List
		</text>

	</g>

	<g>

		<path
			d="M 582.000000 64.000000 A 61 15 0 1 1 581.999970 63.985000 "
			fill="rgb(229, 229, 229)"
			stroke="rgb(0, 0, 0)"
			stroke-width="0.580492"
			style="stroke-linejoin:bevel;stroke-linecap:square;"/>

		<text
			fill="rgb(0, 0, 0)"
			font-family="Arial"
			font-size="5.804919"
			text-anchor="middle"
			x="521"
			y="65.814037">
			Add new item
		</text>

	</g>

	<g>

		<path
			d="M 455.000000 40.000000 A 44 18 0 1 1 454.999978 39.982000 "
			fill="rgb(229, 229, 229)"
			stroke="rgb(0, 0, 0)"
			stroke-width="0.580492"
			style="stroke-linejoin:bevel;stroke-linecap:square;"/>

		<text
			fill="rgb(0, 0, 0)"
			font-family="Arial"
			font-size="5.804919"
			text-anchor="middle"
			x="411"
			y="41.814037">
			Set Name
		</text>

	</g>

	<g>

		<path
			d="M 582.000000 106.000000 A 61 16 0 1 1 581.999970 105.984000 "
			fill="rgb(229, 229, 229)"
			stroke="rgb(0, 0, 0)"
			stroke-width="0.580492"
			style="stroke-linejoin:bevel;stroke-linecap:square;"/>

		<text
			fill="rgb(0, 0, 0)"
			font-family="Arial"
			font-size="5.804919"
			text-anchor="middle"
			x="521"
			y="107.814037">
			Edit item
		</text>

	</g>

	<g>

		<path
			d="M 582.000000 149.000000 A 61 16 0 1 1 581.999970 148.984000 "
			fill="rgb(229, 229, 229)"
			stroke="rgb(0, 0, 0)"
			stroke-width="0.580492"
			style="stroke-linejoin:bevel;stroke-linecap:square;"/>

		<text
			fill="rgb(0, 0, 0)"
			font-family="Arial"
			font-size="5.804919"
			text-anchor="middle"
			x="521"
			y="150.814037">
			Remove Item
		</text>

	</g>

	<g>

		<path
			d="M 746.000000 106.000000 A 62 15 0 1 1 745.999969 105.985000 "
			fill="rgb(229, 229, 229)"
			stroke="rgb(0, 0, 0)"
			stroke-width="0.580492"
			style="stroke-linejoin:bevel;stroke-linecap:square;"/>

		<text
			fill="rgb(0, 0, 0)"
			font-family="Arial"
			font-size="5.804919"
			text-anchor="middle"
			x="684"
			y="107.814037">
			Set Effort Value
		</text>

	</g>

	<g>

		<path
			d="M 584.000000 335.000000 A 65 16 0 1 1 583.999968 334.984000 "
			fill="rgb(229, 229, 229)"
			stroke="rgb(0, 0, 0)"
			stroke-width="0.580492"
			style="stroke-linejoin:bevel;stroke-linecap:square;"/>

		<text
			fill="rgb(0, 0, 0)"
			font-family="Arial"
			font-size="5.804919"
			text-anchor="middle"
			x="519"
			y="336.814037">
			Collect Rewards
		</text>

	</g>

	<g>

		<path
			d="M 586.000000 192.000000 A 63 17 0 1 1 585.999969 191.983000 "
			fill="rgb(229, 229, 229)"
			stroke="rgb(0, 0, 0)"
			stroke-width="0.580492"
			style="stroke-linejoin:bevel;stroke-linecap:square;"/>

		<text
			fill="rgb(0, 0, 0)"
			font-family="Arial"
			font-size="5.804919"
			text-anchor="middle"
			x="523"
			y="193.814037">
			Invite Collaborators
		</text>

	</g>

	<g>

		<line
			fill="rgb(0, 0, 0)"
			stroke="rgb(0, 0, 0)"
			stroke-width="0.580492"
			style="stroke-linejoin:bevel;stroke-linecap:square;"
			x1="367"
			x2="359"
			y1="42"
			y2="46"/>

		<line
			fill="rgb(0, 0, 0)"
			stroke="rgb(0, 0, 0)"
			stroke-width="0.580492"
			style="stroke-linejoin:bevel;stroke-linecap:square;"
			x1="359"
			x2="367"
			y1="38"
			y2="42"/>

		<polyline
			fill="none"
			points="331, 43 334, 43 334, 43 335, 43 337, 43 338, 43 340, 43 341, 43 343, 43 345, 43 346, 43 346, 43 349, 43 349, 43 352, 43 352, 43 354, 43 355, 42 356, 42 358, 42 360, 42 361, 42 363, 42 364, 42 364, 42 367, 42 "
			stroke="rgb(0, 0, 0)"
			stroke-dasharray="11.609838, 5.804919"
			stroke-width="0.580492"
			style="stroke-linejoin:bevel;stroke-linecap:square;"/>

		<text
			fill="rgb(0, 0, 0)"
			font-family="Arial"
			font-size="5.804919"
			text-anchor="middle"
			x="349"
			y="41.814037">
			«include»
		</text>

	</g>

	<g>

		<polyline
			fill="none"
			points="29, 142 43, 134 43, 134 48, 131 54, 127 60, 123 67, 119 74, 115 81, 111 88, 107 94, 104 99, 101 113, 93 113, 93 127, 84 127, 84 133, 81 140, 77 147, 73 155, 68 163, 63 171, 59 177, 55 183, 51 183, 51 197, 43 "
			stroke="rgb(0, 0, 0)"
			stroke-width="0.580492"
			style="stroke-linejoin:bevel;stroke-linecap:square;"/>

	</g>

	<g>

		<polyline
			fill="none"
			points="28, 143 43, 143 43, 143 49, 142 56, 142 63, 142 72, 141 79, 141 87, 141 94, 141 100, 140 100, 140 115, 140 115, 140 129, 139 129, 139 135, 139 142, 139 150, 138 158, 138 166, 137 174, 137 180, 137 186, 137 186, 137 201, 136 "
			stroke="rgb(0, 0, 0)"
			stroke-width="0.580492"
			style="stroke-linejoin:bevel;stroke-linecap:square;"/>

	</g>

	<g>

		<polyline
			fill="none"
			points="28, 145 42, 148 42, 148 48, 150 55, 151 63, 154 70, 156 78, 158 86, 160 93, 161 99, 163 99, 163 113, 166 113, 166 127, 170 127, 170 133, 171 140, 173 148, 175 156, 177 164, 179 171, 181 178, 183 184, 184 184, 184 198, 188 "
			stroke="rgb(0, 0, 0)"
			stroke-width="0.580492"
			style="stroke-linejoin:bevel;stroke-linecap:square;"/>

	</g>

	<g>

		<polyline
			fill="none"
			points="27, 147 41, 155 41, 155 47, 157 54, 161 62, 165 70, 170 78, 174 86, 178 93, 181 99, 185 99, 185 114, 192 114, 192 128, 200 128, 200 134, 202 141, 206 149, 210 157, 215 166, 219 173, 223 180, 226 186, 229 186, 229 201, 237 "
			stroke="rgb(0, 0, 0)"
			stroke-width="0.580492"
			style="stroke-linejoin:bevel;stroke-linecap:square;"/>

	</g>

	<g>

		<polyline
			fill="none"
			points="25, 149 40, 160 40, 160 46, 164 52, 169 59, 174 66, 180 73, 185 81, 190 88, 196 94, 200 99, 205 114, 216 114, 216 129, 227 129, 227 135, 232 142, 237 151, 243 159, 249 167, 256 175, 262 182, 267 188, 272 188, 272 203, 283 "
			stroke="rgb(0, 0, 0)"
			stroke-width="0.580492"
			style="stroke-linejoin:bevel;stroke-linecap:square;"/>

	</g>

	<g>

		<line
			fill="rgb(0, 0, 0)"
			stroke="rgb(0, 0, 0)"
			stroke-width="0.580492"
			style="stroke-linejoin:bevel;stroke-linecap:square;"
			x1="266"
			x2="270"
			y1="56"
			y2="64"/>

		<line
			fill="rgb(0, 0, 0)"
			stroke="rgb(0, 0, 0)"
			stroke-width="0.580492"
			style="stroke-linejoin:bevel;stroke-linecap:square;"
			x1="262"
			x2="266"
			y1="64"
			y2="56"/>

		<polyline
			fill="none"
			points="266, 113 266, 108 266, 108 266, 107 266, 106 266, 105 266, 103 266, 102 266, 100 266, 99 266, 97 266, 96 266, 94 266, 93 266, 92 266, 90 266, 89 266, 89 266, 84 266, 84 266, 80 266, 80 266, 78 266, 75 266, 73 266, 70 266, 68 266, 65 266, 63 266, 61 266, 61 266, 56 "
			stroke="rgb(0, 0, 0)"
			stroke-dasharray="11.609838, 5.804919"
			stroke-width="0.580492"
			style="stroke-linejoin:bevel;stroke-linecap:square;"/>

		<text
			fill="rgb(0, 0, 0)"
			font-family="Arial"
			font-size="5.804919"
			text-anchor="middle"
			x="266"
			y="88.814037">
			«extend»
		</text>

	</g>

	<g>

		<polyline
			fill="none"
			points="22, 152 38, 167 38, 167 42, 171 47, 176 53, 182 59, 188 65, 194 71, 200 78, 206 83, 212 89, 217 94, 222 99, 226 114, 241 114, 241 130, 256 130, 256 136, 263 143, 270 151, 278 160, 286 169, 294 177, 302 184, 310 190, 316 190, 316 206, 331 "
			stroke="rgb(0, 0, 0)"
			stroke-width="0.580492"
			style="stroke-linejoin:bevel;stroke-linecap:square;"/>

	</g>

	<g>

		<line
			fill="rgb(0, 0, 0)"
			stroke="rgb(0, 0, 0)"
			stroke-width="0.580492"
			style="stroke-linejoin:bevel;stroke-linecap:square;"
			x1="290"
			x2="294"
			y1="114"
			y2="106"/>

		<line
			fill="rgb(0, 0, 0)"
			stroke="rgb(0, 0, 0)"
			stroke-width="0.580492"
			style="stroke-linejoin:bevel;stroke-linecap:square;"
			x1="299"
			x2="290"
			y1="112"
			y2="114"/>

		<polyline
			fill="none"
			points="370, 47 363, 53 363, 53 362, 54 360, 55 358, 57 356, 59 354, 60 352, 62 350, 64 348, 66 346, 68 344, 69 342, 71 340, 73 338, 74 337, 75 337, 75 330, 81 330, 81 323, 86 323, 86 321, 89 317, 92 314, 94 310, 98 307, 101 303, 104 300, 107 297, 109 297, 109 290, 114 "
			stroke="rgb(0, 0, 0)"
			stroke-dasharray="11.609838, 5.804919"
			stroke-width="0.580492"
			style="stroke-linejoin:bevel;stroke-linecap:square;"/>

		<text
			fill="rgb(0, 0, 0)"
			font-family="Arial"
			font-size="5.804919"
			text-anchor="middle"
			x="337"
			y="74.814037">
			«extend»
		</text>

	</g>

	<g>

		<line
			fill="rgb(0, 0, 0)"
			stroke="rgb(0, 0, 0)"
			stroke-width="0.580492"
			style="stroke-linejoin:bevel;stroke-linecap:square;"
			x1="310"
			x2="317"
			y1="118"
			y2="112"/>

		<line
			fill="rgb(0, 0, 0)"
			stroke="rgb(0, 0, 0)"
			stroke-width="0.580492"
			style="stroke-linejoin:bevel;stroke-linecap:square;"
			x1="319"
			x2="310"
			y1="119"
			y2="118"/>

		<polyline
			fill="none"
			points="460, 65 448, 70 448, 70 445, 71 442, 72 438, 73 434, 74 431, 76 427, 77 423, 79 419, 80 415, 82 411, 83 407, 84 404, 85 400, 87 398, 88 398, 88 385, 92 385, 92 373, 97 373, 97 367, 98 361, 101 355, 103 348, 105 341, 107 334, 110 328, 112 323, 114 323, 114 310, 118 "
			stroke="rgb(0, 0, 0)"
			stroke-dasharray="11.609838, 5.804919"
			stroke-width="0.580492"
			style="stroke-linejoin:bevel;stroke-linecap:square;"/>

		<text
			fill="rgb(0, 0, 0)"
			font-family="Arial"
			font-size="5.804919"
			text-anchor="middle"
			x="398"
			y="86.814037">
			«extend»
		</text>

	</g>

	<g>

		<line
			fill="rgb(0, 0, 0)"
			stroke="rgb(0, 0, 0)"
			stroke-width="0.580492"
			style="stroke-linejoin:bevel;stroke-linecap:square;"
			x1="324"
			x2="332"
			y1="125"
			y2="120"/>

		<line
			fill="rgb(0, 0, 0)"
			stroke="rgb(0, 0, 0)"
			stroke-width="0.580492"
			style="stroke-linejoin:bevel;stroke-linecap:square;"
			x1="333"
			x2="324"
			y1="128"
			y2="125"/>

		<polyline
			fill="none"
			points="459, 107 448, 108 448, 108 446, 108 443, 109 439, 109 436, 110 433, 110 429, 111 426, 112 422, 112 419, 112 415, 113 412, 113 409, 114 406, 114 403, 115 403, 115 392, 116 392, 116 380, 117 380, 117 376, 118 371, 119 364, 120 358, 121 352, 122 346, 122 340, 123 336, 124 336, 124 324, 125 "
			stroke="rgb(0, 0, 0)"
			stroke-dasharray="11.609838, 5.804919"
			stroke-width="0.580492"
			style="stroke-linejoin:bevel;stroke-linecap:square;"/>

		<text
			fill="rgb(0, 0, 0)"
			font-family="Arial"
			font-size="5.804919"
			text-anchor="middle"
			x="403"
			y="113.814037">
			«extend»
		</text>

	</g>

	<g>

		<line
			fill="rgb(0, 0, 0)"
			stroke="rgb(0, 0, 0)"
			stroke-width="0.580492"
			style="stroke-linejoin:bevel;stroke-linecap:square;"
			x1="327"
			x2="336"
			y1="132"
			y2="129"/>

		<line
			fill="rgb(0, 0, 0)"
			stroke="rgb(0, 0, 0)"
			stroke-width="0.580492"
			style="stroke-linejoin:bevel;stroke-linecap:square;"
			x1="335"
			x2="327"
			y1="137"
			y2="132"/>

		<polyline
			fill="none"
			points="459, 148 449, 147 449, 147 446, 146 443, 146 440, 146 437, 146 434, 145 430, 145 426, 144 423, 144 419, 143 416, 143 413, 142 410, 142 407, 142 404, 141 404, 141 393, 140 393, 140 382, 139 382, 139 378, 138 372, 137 366, 137 361, 136 354, 135 348, 135 343, 134 338, 133 338, 133 327, 132 "
			stroke="rgb(0, 0, 0)"
			stroke-dasharray="11.609838, 5.804919"
			stroke-width="0.580492"
			style="stroke-linejoin:bevel;stroke-linecap:square;"/>

		<text
			fill="rgb(0, 0, 0)"
			font-family="Arial"
			font-size="5.804919"
			text-anchor="middle"
			x="404"
			y="140.814037">
			«extend»
		</text>

	</g>

	<g>

		<line
			fill="rgb(0, 0, 0)"
			stroke="rgb(0, 0, 0)"
			stroke-width="0.580492"
			style="stroke-linejoin:bevel;stroke-linecap:square;"
			x1="304"
			x2="313"
			y1="145"
			y2="145"/>

		<line
			fill="rgb(0, 0, 0)"
			stroke="rgb(0, 0, 0)"
			stroke-width="0.580492"
			style="stroke-linejoin:bevel;stroke-linecap:square;"
			x1="309"
			x2="304"
			y1="152"
			y2="145"/>

		<polyline
			fill="none"
			points="329, 237 334, 234 334, 234 336, 234 338, 232 341, 231 343, 229 346, 226 349, 224 351, 220 354, 217 354, 217 356, 213 357, 208 358, 203 359, 198 358, 193 357, 187 356, 182 353, 177 353, 177 349, 173 346, 169 341, 166 336, 162 331, 159 327, 156 322, 154 317, 151 314, 150 304, 145 "
			stroke="rgb(0, 0, 0)"
			stroke-dasharray="11.609838, 5.804919"
			stroke-width="0.580492"
			style="stroke-linejoin:bevel;stroke-linecap:square;"/>

		<text
			fill="rgb(0, 0, 0)"
			font-family="Arial"
			font-size="5.804919"
			text-anchor="middle"
			x="359"
			y="196.814037">
			«include»
		</text>

	</g>

	<g>

		<line
			fill="rgb(0, 0, 0)"
			stroke="rgb(0, 0, 0)"
			stroke-width="0.580492"
			style="stroke-linejoin:bevel;stroke-linecap:square;"
			x1="317"
			x2="326"
			y1="141"
			y2="142"/>

		<line
			fill="rgb(0, 0, 0)"
			stroke="rgb(0, 0, 0)"
			stroke-width="0.580492"
			style="stroke-linejoin:bevel;stroke-linecap:square;"
			x1="322"
			x2="317"
			y1="149"
			y2="141"/>

		<polyline
			fill="none"
			points="330, 287 337, 281 337, 281 340, 279 343, 277 346, 274 351, 272 354, 268 358, 265 362, 262 367, 258 371, 254 375, 250 379, 246 383, 241 386, 237 389, 233 390, 228 392, 224 393, 219 393, 219 393, 215 393, 210 392, 206 390, 202 388, 198 385, 194 382, 189 378, 185 374, 180 368, 176 362, 171 356, 166 350, 161 343, 157 337, 154 332, 151 328, 148 328, 148 317, 141 "
			stroke="rgb(0, 0, 0)"
			stroke-dasharray="11.609838, 5.804919"
			stroke-width="0.580492"
			style="stroke-linejoin:bevel;stroke-linecap:square;"/>

		<text
			fill="rgb(0, 0, 0)"
			font-family="Arial"
			font-size="5.804919"
			text-anchor="middle"
			x="393"
			y="218.814037">
			«include»
		</text>

	</g>

	<g>

		<line
			fill="rgb(0, 0, 0)"
			stroke="rgb(0, 0, 0)"
			stroke-width="0.580492"
			style="stroke-linejoin:bevel;stroke-linecap:square;"
			x1="454"
			x2="446"
			y1="336"
			y2="340"/>

		<line
			fill="rgb(0, 0, 0)"
			stroke="rgb(0, 0, 0)"
			stroke-width="0.580492"
			style="stroke-linejoin:bevel;stroke-linecap:square;"
			x1="446"
			x2="454"
			y1="332"
			y2="336"/>

		<polyline
			fill="none"
			points="332, 336 342, 336 342, 336 383, 336 383, 336 393, 336 393, 336 404, 336 404, 336 444, 336 444, 336 454, 336 "
			stroke="rgb(0, 0, 0)"
			stroke-dasharray="11.609838, 5.804919"
			stroke-width="0.580492"
			style="stroke-linejoin:bevel;stroke-linecap:square;"/>

		<text
			fill="rgb(0, 0, 0)"
			font-family="Arial"
			font-size="5.804919"
			text-anchor="middle"
			x="393"
			y="335.814037">
			«include»
		</text>

	</g>

	<g>

		<line
			fill="rgb(0, 0, 0)"
			stroke="rgb(0, 0, 0)"
			stroke-width="0.580492"
			style="stroke-linejoin:bevel;stroke-linecap:square;"
			x1="323"
			x2="332"
			y1="138"
			y2="137"/>

		<line
			fill="rgb(0, 0, 0)"
			stroke="rgb(0, 0, 0)"
			stroke-width="0.580492"
			style="stroke-linejoin:bevel;stroke-linecap:square;"
			x1="330"
			x2="323"
			y1="145"
			y2="138"/>

		<polyline
			fill="none"
			points="460, 190 449, 185 449, 185 446, 184 444, 183 440, 182 437, 181 434, 180 430, 178 426, 177 423, 176 419, 174 415, 173 412, 171 409, 170 406, 169 403, 168 403, 168 392, 164 392, 164 380, 160 380, 160 376, 158 370, 156 364, 153 358, 151 351, 148 345, 146 340, 144 335, 142 335, 142 323, 138 "
			stroke="rgb(0, 0, 0)"
			stroke-dasharray="11.609838, 5.804919"
			stroke-width="0.580492"
			style="stroke-linejoin:bevel;stroke-linecap:square;"/>

		<text
			fill="rgb(0, 0, 0)"
			font-family="Arial"
			font-size="5.804919"
			text-anchor="middle"
			x="403"
			y="167.814037">
			«extend»
		</text>

	</g>

	<g>

		<line
			fill="rgb(0, 0, 0)"
			stroke="rgb(0, 0, 0)"
			stroke-width="0.580492"
			style="stroke-linejoin:bevel;stroke-linecap:square;"
			x1="582"
			x2="590"
			y1="107"
			y2="103"/>

		<line
			fill="rgb(0, 0, 0)"
			stroke="rgb(0, 0, 0)"
			stroke-width="0.580492"
			style="stroke-linejoin:bevel;stroke-linecap:square;"
			x1="590"
			x2="582"
			y1="112"
			y2="107"/>

		<polyline
			fill="none"
			points="623, 107 619, 107 619, 107 619, 107 618, 107 617, 107 616, 107 615, 107 614, 107 613, 107 611, 107 610, 107 609, 107 608, 107 607, 107 606, 107 606, 107 606, 107 602, 107 602, 107 599, 107 599, 107 597, 107 596, 107 594, 107 592, 107 590, 107 588, 107 587, 107 585, 107 585, 107 582, 107 "
			stroke="rgb(0, 0, 0)"
			stroke-dasharray="11.609838, 5.804919"
			stroke-width="0.580492"
			style="stroke-linejoin:bevel;stroke-linecap:square;"/>

		<text
			fill="rgb(0, 0, 0)"
			font-family="Arial"
			font-size="5.804919"
			text-anchor="middle"
			x="606"
			y="106.814037">
			«extend»
		</text>

	</g>

</svg>

