<?xml version="1.0" encoding="utf-8" standalone="no"?>
<svg
	baseProfile="full"
	height="100%"
	version="1.1"
	viewBox="-10 -10 766 524"
	width="100%"
	xmlns="http://www.w3.org/2000/svg"
	xmlns:ev="http://www.w3.org/2001/xml-events"
	xmlns:xlink="http://www.w3.org/1999/xlink">

	<g>

		<polygon
			fill="rgb(0, 0, 0)"
			points="17, 242 17, 246 0, 246 0, 249 17, 249 17, 254 7, 266 11, 266 18, 256 25, 266 29, 266 19, 254 19, 249 36, 249 36, 246 19, 246 19, 242 "
			stroke="none"
			stroke-width="0.730201"
			style="stroke-linejoin:bevel;stroke-linecap:square;"/>

		<path
			d="M 24.000000 238.000000 A 6 6 0 1 1 23.999997 237.994000 "
			fill="rgb(0, 0, 0)"
			stroke="none"
			stroke-width="0.730201"
			style="stroke-linejoin:bevel;stroke-linecap:square;"/>

		<path
			d="M 21.000000 238.000000 A 3 3 0 1 1 20.999999 237.997000 "
			fill="rgb(229, 229, 229)"
			stroke="none"
			stroke-width="0.730201"
			style="stroke-linejoin:bevel;stroke-linecap:square;"/>

		<text
			fill="rgb(0, 0, 0)"
			font-family="Arial"
			font-size="7.302013"
			text-anchor="middle"
			x="18"
			y="275.583893">
			User
		</text>

	</g>

	<g>

		<polygon
			fill="rgb(0, 0, 0)"
			fill-opacity="0.100000"
			points="111, 0 201, 0 201, 10 733, 10 733, 504 111, 504 "
			stroke="rgb(0, 0, 0)"
			stroke-width="0.730201"
			style="stroke-linejoin:bevel;stroke-linecap:square;"/>

		<line
			fill="rgb(0, 0, 0)"
			stroke="rgb(0, 0, 0)"
			stroke-width="0.730201"
			style="stroke-linejoin:bevel;stroke-linecap:square;"
			x1="111"
			x2="201"
			y1="10"
			y2="10"/>

		<text
			fill="rgb(0, 0, 0)"
			font-family="Arial"
			font-size="7.302013"
			text-anchor="start"
			x="112"
			y="9.583893">
			User Account Management
		</text>

	</g>

	<g>

		<path
			d="M 436.000000 389.000000 A 84 21 0 1 1 435.999958 388.979000 "
			fill="rgb(229, 229, 229)"
			stroke="rgb(0, 0, 0)"
			stroke-width="0.730201"
			style="stroke-linejoin:bevel;stroke-linecap:square;"/>

		<text
			fill="rgb(0, 0, 0)"
			font-family="Arial"
			font-size="7.302013"
			text-anchor="middle"
			x="352"
			y="391.281879">
			Edit profile
		</text>

	</g>

	<g>

		<path
			d="M 433.000000 41.000000 A 82 20 0 1 1 432.999959 40.980000 "
			fill="rgb(229, 229, 229)"
			stroke="rgb(0, 0, 0)"
			stroke-width="0.730201"
			style="stroke-linejoin:bevel;stroke-linecap:square;"/>

		<text
			fill="rgb(0, 0, 0)"
			font-family="Arial"
			font-size="7.302013"
			text-anchor="middle"
			x="351"
			y="43.281879">
			User Login
		</text>

	</g>

	<g>

		<path
			d="M 468.000000 95.000000 A 54 16 0 1 1 467.999973 94.984000 "
			fill="rgb(229, 229, 229)"
			stroke="rgb(0, 0, 0)"
			stroke-width="0.730201"
			style="stroke-linejoin:bevel;stroke-linecap:square;"/>

		<text
			fill="rgb(0, 0, 0)"
			font-family="Arial"
			font-size="7.302013"
			text-anchor="middle"
			x="414"
			y="97.281879">
			Enter name
		</text>

	</g>

	<g>

		<path
			d="M 348.000000 95.000000 A 54 15 0 1 1 347.999973 94.985000 "
			fill="rgb(229, 229, 229)"
			stroke="rgb(0, 0, 0)"
			stroke-width="0.730201"
			style="stroke-linejoin:bevel;stroke-linecap:square;"/>

		<text
			fill="rgb(0, 0, 0)"
			font-family="Arial"
			font-size="7.302013"
			text-anchor="middle"
			x="294"
			y="97.281879">
			Enter password
		</text>

	</g>

	<g>

		<path
			d="M 430.000000 173.000000 A 81 24 0 1 1 429.999960 172.976000 "
			fill="rgb(229, 229, 229)"
			stroke="rgb(0, 0, 0)"
			stroke-width="0.730201"
			style="stroke-linejoin:bevel;stroke-linecap:square;"/>

		<text
			fill="rgb(0, 0, 0)"
			font-family="Arial"
			font-size="7.302013"
			text-anchor="middle"
			x="349"
			y="175.281879">
			User Registration
		</text>

	</g>

	<g>

		<path
			d="M 539.000000 240.000000 A 52 16 0 1 1 538.999974 239.984000 "
			fill="rgb(229, 229, 229)"
			stroke="rgb(0, 0, 0)"
			stroke-width="0.730201"
			style="stroke-linejoin:bevel;stroke-linecap:square;"/>

		<text
			fill="rgb(0, 0, 0)"
			font-family="Arial"
			font-size="7.302013"
			text-anchor="middle"
			x="487"
			y="242.281879">
			Set name
		</text>

	</g>

	<g>

		<path
			d="M 418.000000 240.000000 A 53 16 0 1 1 417.999974 239.984000 "
			fill="rgb(229, 229, 229)"
			stroke="rgb(0, 0, 0)"
			stroke-width="0.730201"
			style="stroke-linejoin:bevel;stroke-linecap:square;"/>

		<text
			fill="rgb(0, 0, 0)"
			font-family="Arial"
			font-size="7.302013"
			text-anchor="middle"
			x="365"
			y="242.281879">
			Set password
		</text>

	</g>

	<g>

		<path
			d="M 626.000000 456.000000 A 57 15 0 1 1 625.999972 455.985000 "
			fill="rgb(229, 229, 229)"
			stroke="rgb(0, 0, 0)"
			stroke-width="0.730201"
			style="stroke-linejoin:bevel;stroke-linecap:square;"/>

		<text
			fill="rgb(0, 0, 0)"
			font-family="Arial"
			font-size="7.302013"
			text-anchor="middle"
			x="569"
			y="458.281879">
			Change picture
		</text>

	</g>

	<g>

		<path
			d="M 332.000000 464.000000 A 57 15 0 1 1 331.999972 463.985000 "
			fill="rgb(229, 229, 229)"
			stroke="rgb(0, 0, 0)"
			stroke-width="0.730201"
			style="stroke-linejoin:bevel;stroke-linecap:square;"/>

		<text
			fill="rgb(0, 0, 0)"
			font-family="Arial"
			font-size="7.302013"
			text-anchor="middle"
			x="275"
			y="466.281879">
			Change password
		</text>

	</g>

	<g>

		<path
			d="M 469.000000 464.000000 A 57 15 0 1 1 468.999972 463.985000 "
			fill="rgb(229, 229, 229)"
			stroke="rgb(0, 0, 0)"
			stroke-width="0.730201"
			style="stroke-linejoin:bevel;stroke-linecap:square;"/>

		<text
			fill="rgb(0, 0, 0)"
			font-family="Arial"
			font-size="7.302013"
			text-anchor="middle"
			x="412"
			y="466.281879">
			Change E-Mail
		</text>

	</g>

	<g>

		<path
			d="M 431.000000 317.000000 A 84 24 0 1 1 430.999958 316.976000 "
			fill="rgb(229, 229, 229)"
			stroke="rgb(0, 0, 0)"
			stroke-width="0.730201"
			style="stroke-linejoin:bevel;stroke-linecap:square;"/>

		<text
			fill="rgb(0, 0, 0)"
			font-family="Arial"
			font-size="7.302013"
			text-anchor="middle"
			x="347"
			y="319.281879">
			Show user profile
		</text>

	</g>

	<g>

		<path
			d="M 676.000000 313.000000 A 54 19 0 1 1 675.999973 312.981000 "
			fill="rgb(229, 229, 229)"
			stroke="rgb(0, 0, 0)"
			stroke-width="0.730201"
			style="stroke-linejoin:bevel;stroke-linecap:square;"/>

		<text
			fill="rgb(0, 0, 0)"
			font-family="Arial"
			font-size="7.302013"
			text-anchor="middle"
			x="622"
			y="315.281879">
			Show user statistics
		</text>

	</g>

	<g>

		<path
			d="M 677.000000 41.000000 A 54 15 0 1 1 676.999973 40.985000 "
			fill="rgb(229, 229, 229)"
			stroke="rgb(0, 0, 0)"
			stroke-width="0.730201"
			style="stroke-linejoin:bevel;stroke-linecap:square;"/>

		<text
			fill="rgb(0, 0, 0)"
			font-family="Arial"
			font-size="7.302013"
			text-anchor="middle"
			x="623"
			y="43.281879">
			Reset password
		</text>

	</g>

	<g>

		<path
			d="M 294.000000 239.000000 A 54 16 0 1 1 293.999973 238.984000 "
			fill="rgb(229, 229, 229)"
			stroke="rgb(0, 0, 0)"
			stroke-width="0.730201"
			style="stroke-linejoin:bevel;stroke-linecap:square;"/>

		<text
			fill="rgb(0, 0, 0)"
			font-family="Arial"
			font-size="7.302013"
			text-anchor="middle"
			x="240"
			y="241.281879">
			Enter E-Mail
		</text>

	</g>

	<g>

		<path
			d="M 691.000000 390.000000 A 55 18 0 1 1 690.999973 389.982000 "
			fill="rgb(229, 229, 229)"
			stroke="rgb(0, 0, 0)"
			stroke-width="0.730201"
			style="stroke-linejoin:bevel;stroke-linecap:square;"/>

		<text
			fill="rgb(0, 0, 0)"
			font-family="Arial"
			font-size="7.302013"
			text-anchor="middle"
			x="636"
			y="392.281879">
			Change user name
		</text>

	</g>

	<g>

		<path
			d="M 668.000000 173.000000 A 54 16 0 1 1 667.999973 172.984000 "
			fill="rgb(229, 229, 229)"
			stroke="rgb(0, 0, 0)"
			stroke-width="0.730201"
			style="stroke-linejoin:bevel;stroke-linecap:square;"/>

		<text
			fill="rgb(0, 0, 0)"
			font-family="Arial"
			font-size="7.302013"
			text-anchor="middle"
			x="614"
			y="175.281879">
			Set picture
		</text>

	</g>

	<g>

		<line
			fill="rgb(0, 0, 0)"
			stroke="rgb(0, 0, 0)"
			stroke-width="0.730201"
			style="stroke-linejoin:bevel;stroke-linecap:square;"
			x1="435"
			x2="446"
			y1="391"
			y2="386"/>

		<line
			fill="rgb(0, 0, 0)"
			stroke="rgb(0, 0, 0)"
			stroke-width="0.730201"
			style="stroke-linejoin:bevel;stroke-linecap:square;"
			x1="446"
			x2="435"
			y1="396"
			y2="391"/>

		<polyline
			fill="none"
			points="581, 391 569, 391 569, 391 566, 391 562, 391 560, 391 556, 391 552, 391 548, 391 544, 391 540, 391 536, 391 533, 391 529, 391 526, 391 523, 391 520, 391 520, 391 508, 391 508, 391 496, 391 496, 391 491, 391 485, 391 478, 391 472, 391 465, 391 458, 391 452, 391 447, 391 447, 391 435, 391 "
			stroke="rgb(0, 0, 0)"
			stroke-dasharray="14.604027, 7.302013"
			stroke-width="0.730201"
			style="stroke-linejoin:bevel;stroke-linecap:square;"/>

		<text
			fill="rgb(0, 0, 0)"
			font-family="Arial"
			font-size="7.302013"
			text-anchor="middle"
			x="520"
			y="390.281879">
			«extend»
		</text>

	</g>

	<g>

		<line
			fill="rgb(0, 0, 0)"
			stroke="rgb(0, 0, 0)"
			stroke-width="0.730201"
			style="stroke-linejoin:bevel;stroke-linecap:square;"
			x1="365"
			x2="376"
			y1="410"
			y2="413"/>

		<line
			fill="rgb(0, 0, 0)"
			stroke="rgb(0, 0, 0)"
			stroke-width="0.730201"
			style="stroke-linejoin:bevel;stroke-linecap:square;"
			x1="369"
			x2="365"
			y1="420"
			y2="410"/>

		<polyline
			fill="none"
			points="406, 450 402, 446 402, 446 402, 446 400, 444 400, 444 399, 443 398, 442 396, 440 395, 440 394, 439 393, 438 392, 436 391, 435 390, 435 389, 434 388, 433 388, 433 385, 430 385, 430 382, 426 382, 426 381, 425 379, 423 377, 422 375, 420 373, 418 371, 416 370, 414 369, 413 369, 413 365, 410 "
			stroke="rgb(0, 0, 0)"
			stroke-dasharray="14.604027, 7.302013"
			stroke-width="0.730201"
			style="stroke-linejoin:bevel;stroke-linecap:square;"/>

		<text
			fill="rgb(0, 0, 0)"
			font-family="Arial"
			font-size="7.302013"
			text-anchor="middle"
			x="388"
			y="432.281879">
			«extend»
		</text>

	</g>

	<g>

		<line
			fill="rgb(0, 0, 0)"
			stroke="rgb(0, 0, 0)"
			stroke-width="0.730201"
			style="stroke-linejoin:bevel;stroke-linecap:square;"
			x1="415"
			x2="426"
			y1="403"
			y2="401"/>

		<line
			fill="rgb(0, 0, 0)"
			stroke="rgb(0, 0, 0)"
			stroke-width="0.730201"
			style="stroke-linejoin:bevel;stroke-linecap:square;"
			x1="423"
			x2="415"
			y1="411"
			y2="403"/>

		<polyline
			fill="none"
			points="547, 442 536, 439 536, 439 533, 438 531, 438 528, 436 524, 435 521, 435 517, 434 514, 432 511, 431 507, 430 504, 430 500, 428 497, 427 495, 427 492, 426 492, 426 481, 423 481, 423 470, 419 470, 419 466, 418 460, 416 454, 415 448, 413 442, 411 436, 410 430, 408 426, 407 426, 407 415, 403 "
			stroke="rgb(0, 0, 0)"
			stroke-dasharray="14.604027, 7.302013"
			stroke-width="0.730201"
			style="stroke-linejoin:bevel;stroke-linecap:square;"/>

		<text
			fill="rgb(0, 0, 0)"
			font-family="Arial"
			font-size="7.302013"
			text-anchor="middle"
			x="492"
			y="425.281879">
			«extend»
		</text>

	</g>

	<g>

		<polyline
			fill="none"
			points="36, 252 55, 257 55, 257 63, 259 72, 262 83, 264 94, 267 104, 270 114, 273 124, 275 132, 277 132, 277 151, 282 151, 282 169, 287 169, 287 177, 289 187, 292 197, 294 208, 297 218, 300 229, 302 238, 305 246, 307 246, 307 265, 312 "
			stroke="rgb(0, 0, 0)"
			stroke-width="0.730201"
			style="stroke-linejoin:bevel;stroke-linecap:square;"/>

	</g>

	<g>

		<polyline
			fill="none"
			points="34, 258 54, 268 54, 268 62, 273 71, 278 82, 284 93, 289 104, 295 115, 301 124, 306 132, 310 132, 310 152, 321 152, 321 172, 331 172, 331 180, 335 190, 341 201, 346 212, 353 222, 358 233, 364 243, 369 251, 374 251, 374 271, 384 "
			stroke="rgb(0, 0, 0)"
			stroke-width="0.730201"
			style="stroke-linejoin:bevel;stroke-linecap:square;"/>

	</g>

	<g>

		<polyline
			fill="none"
			points="33, 238 53, 222 53, 222 60, 216 68, 209 78, 202 87, 194 98, 186 107, 178 116, 171 125, 164 132, 157 152, 141 152, 141 172, 126 172, 126 180, 119 189, 111 200, 102 211, 93 222, 84 232, 75 242, 67 250, 60 250, 60 270, 44 "
			stroke="rgb(0, 0, 0)"
			stroke-width="0.730201"
			style="stroke-linejoin:bevel;stroke-linecap:square;"/>

	</g>

	<g>

		<line
			fill="rgb(0, 0, 0)"
			stroke="rgb(0, 0, 0)"
			stroke-width="0.730201"
			style="stroke-linejoin:bevel;stroke-linecap:square;"
			x1="431"
			x2="442"
			y1="314"
			y2="309"/>

		<line
			fill="rgb(0, 0, 0)"
			stroke="rgb(0, 0, 0)"
			stroke-width="0.730201"
			style="stroke-linejoin:bevel;stroke-linecap:square;"
			x1="442"
			x2="431"
			y1="319"
			y2="314"/>

		<polyline
			fill="none"
			points="568, 314 557, 314 557, 314 554, 314 551, 314 548, 314 545, 314 541, 314 537, 314 534, 314 531, 314 527, 314 523, 314 520, 314 517, 314 514, 314 511, 314 511, 314 500, 314 500, 314 488, 314 488, 314 484, 314 478, 314 472, 314 466, 314 459, 314 453, 314 447, 314 443, 314 443, 314 431, 314 "
			stroke="rgb(0, 0, 0)"
			stroke-dasharray="14.604027, 7.302013"
			stroke-width="0.730201"
			style="stroke-linejoin:bevel;stroke-linecap:square;"/>

		<text
			fill="rgb(0, 0, 0)"
			font-family="Arial"
			font-size="7.302013"
			text-anchor="middle"
			x="511"
			y="313.281879">
			«extend»
		</text>

	</g>

	<g>

		<line
			fill="rgb(0, 0, 0)"
			stroke="rgb(0, 0, 0)"
			stroke-width="0.730201"
			style="stroke-linejoin:bevel;stroke-linecap:square;"
			x1="474"
			x2="463"
			y1="224"
			y2="221"/>

		<line
			fill="rgb(0, 0, 0)"
			stroke="rgb(0, 0, 0)"
			stroke-width="0.730201"
			style="stroke-linejoin:bevel;stroke-linecap:square;"
			x1="469"
			x2="474"
			y1="213"
			y2="224"/>

		<polyline
			fill="none"
			points="422, 184 426, 188 426, 188 428, 189 430, 191 431, 192 434, 193 436, 195 438, 197 440, 199 442, 200 443, 201 448, 204 448, 204 452, 208 452, 208 454, 209 456, 211 459, 212 461, 214 463, 216 466, 217 468, 219 469, 220 469, 220 474, 224 "
			stroke="rgb(0, 0, 0)"
			stroke-dasharray="14.604027, 7.302013"
			stroke-width="0.730201"
			style="stroke-linejoin:bevel;stroke-linecap:square;"/>

		<text
			fill="rgb(0, 0, 0)"
			font-family="Arial"
			font-size="7.302013"
			text-anchor="middle"
			x="448"
			y="203.281879">
			«include»
		</text>

	</g>

	<g>

		<line
			fill="rgb(0, 0, 0)"
			stroke="rgb(0, 0, 0)"
			stroke-width="0.730201"
			style="stroke-linejoin:bevel;stroke-linecap:square;"
			x1="363"
			x2="358"
			y1="224"
			y2="214"/>

		<line
			fill="rgb(0, 0, 0)"
			stroke="rgb(0, 0, 0)"
			stroke-width="0.730201"
			style="stroke-linejoin:bevel;stroke-linecap:square;"
			x1="368"
			x2="363"
			y1="214"
			y2="224"/>

		<polyline
			fill="none"
			points="363, 197 363, 199 363, 199 363, 200 363, 200 363, 201 363, 201 363, 203 363, 203 363, 204 363, 204 363, 205 363, 206 363, 207 363, 207 363, 208 363, 208 363, 208 363, 211 363, 211 363, 213 363, 213 363, 214 363, 215 363, 216 363, 217 363, 218 363, 220 363, 221 363, 222 363, 222 363, 224 "
			stroke="rgb(0, 0, 0)"
			stroke-dasharray="14.604027, 7.302013"
			stroke-width="0.730201"
			style="stroke-linejoin:bevel;stroke-linecap:square;"/>

		<text
			fill="rgb(0, 0, 0)"
			font-family="Arial"
			font-size="7.302013"
			text-anchor="middle"
			x="363"
			y="207.281879">
			«include»
		</text>

	</g>

	<g>

		<line
			fill="rgb(0, 0, 0)"
			stroke="rgb(0, 0, 0)"
			stroke-width="0.730201"
			style="stroke-linejoin:bevel;stroke-linecap:square;"
			x1="246"
			x2="248"
			y1="223"
			y2="212"/>

		<line
			fill="rgb(0, 0, 0)"
			stroke="rgb(0, 0, 0)"
			stroke-width="0.730201"
			style="stroke-linejoin:bevel;stroke-linecap:square;"
			x1="257"
			x2="246"
			y1="218"
			y2="223"/>

		<polyline
			fill="none"
			points="276, 184 273, 187 273, 187 273, 188 272, 189 272, 189 271, 191 270, 192 269, 193 269, 194 268, 195 267, 196 266, 197 265, 198 265, 199 264, 200 264, 200 264, 200 261, 204 261, 204 259, 207 259, 207 258, 208 257, 210 256, 212 254, 213 253, 215 251, 217 250, 218 249, 220 249, 220 246, 223 "
			stroke="rgb(0, 0, 0)"
			stroke-dasharray="14.604027, 7.302013"
			stroke-width="0.730201"
			style="stroke-linejoin:bevel;stroke-linecap:square;"/>

		<text
			fill="rgb(0, 0, 0)"
			font-family="Arial"
			font-size="7.302013"
			text-anchor="middle"
			x="264"
			y="199.281879">
			«include»
		</text>

	</g>

	<g>

		<line
			fill="rgb(0, 0, 0)"
			stroke="rgb(0, 0, 0)"
			stroke-width="0.730201"
			style="stroke-linejoin:bevel;stroke-linecap:square;"
			x1="432"
			x2="443"
			y1="41"
			y2="35"/>

		<line
			fill="rgb(0, 0, 0)"
			stroke="rgb(0, 0, 0)"
			stroke-width="0.730201"
			style="stroke-linejoin:bevel;stroke-linecap:square;"
			x1="443"
			x2="432"
			y1="46"
			y2="41"/>

		<polyline
			fill="none"
			points="569, 41 557, 41 557, 41 555, 41 552, 41 549, 41 545, 41 542, 41 538, 41 535, 41 531, 41 527, 41 524, 41 520, 41 517, 41 515, 41 512, 41 512, 41 500, 41 500, 41 489, 41 489, 41 487, 41 484, 41 480, 41 477, 41 473, 41 470, 41 467, 41 463, 41 459, 41 456, 41 452, 41 450, 41 446, 41 444, 41 444, 41 432, 41 "
			stroke="rgb(0, 0, 0)"
			stroke-dasharray="14.604027, 7.302013"
			stroke-width="0.730201"
			style="stroke-linejoin:bevel;stroke-linecap:square;"/>

		<text
			fill="rgb(0, 0, 0)"
			font-family="Arial"
			font-size="7.302013"
			text-anchor="middle"
			x="500"
			y="40.281879">
			«extend»
		</text>

	</g>

	<g>

		<line
			fill="rgb(0, 0, 0)"
			stroke="rgb(0, 0, 0)"
			stroke-width="0.730201"
			style="stroke-linejoin:bevel;stroke-linecap:square;"
			x1="353"
			x2="358"
			y1="340"
			y2="350"/>

		<line
			fill="rgb(0, 0, 0)"
			stroke="rgb(0, 0, 0)"
			stroke-width="0.730201"
			style="stroke-linejoin:bevel;stroke-linecap:square;"
			x1="348"
			x2="353"
			y1="350"
			y2="340"/>

		<polyline
			fill="none"
			points="353, 369 353, 366 353, 366 353, 366 353, 365 353, 365 353, 364 353, 363 353, 362 353, 362 353, 361 353, 360 353, 359 353, 358 353, 358 353, 357 353, 357 353, 357 353, 354 353, 354 353, 352 353, 352 353, 351 353, 350 353, 349 353, 347 353, 346 353, 345 353, 343 353, 342 353, 342 353, 340 "
			stroke="rgb(0, 0, 0)"
			stroke-dasharray="14.604027, 7.302013"
			stroke-width="0.730201"
			style="stroke-linejoin:bevel;stroke-linecap:square;"/>

		<text
			fill="rgb(0, 0, 0)"
			font-family="Arial"
			font-size="7.302013"
			text-anchor="middle"
			x="353"
			y="356.281879">
			«extend»
		</text>

	</g>

	<g>

		<line
			fill="rgb(0, 0, 0)"
			stroke="rgb(0, 0, 0)"
			stroke-width="0.730201"
			style="stroke-linejoin:bevel;stroke-linecap:square;"
			x1="299"
			x2="302"
			y1="80"
			y2="69"/>

		<line
			fill="rgb(0, 0, 0)"
			stroke="rgb(0, 0, 0)"
			stroke-width="0.730201"
			style="stroke-linejoin:bevel;stroke-linecap:square;"
			x1="310"
			x2="299"
			y1="76"
			y2="80"/>

		<polyline
			fill="none"
			points="316, 60 315, 62 315, 62 314, 62 314, 63 314, 63 313, 63 313, 64 313, 64 312, 65 311, 66 311, 66 311, 67 310, 67 310, 68 310, 68 309, 68 309, 68 308, 70 308, 70 307, 72 307, 72 306, 72 305, 74 305, 74 304, 75 303, 76 302, 77 302, 78 301, 79 301, 79 299, 80 "
			stroke="rgb(0, 0, 0)"
			stroke-dasharray="14.604027, 7.302013"
			stroke-width="0.730201"
			style="stroke-linejoin:bevel;stroke-linecap:square;"/>

		<text
			fill="rgb(0, 0, 0)"
			font-family="Arial"
			font-size="7.302013"
			text-anchor="middle"
			x="309"
			y="68.281879">
			«include»
		</text>

	</g>

	<g>

		<line
			fill="rgb(0, 0, 0)"
			stroke="rgb(0, 0, 0)"
			stroke-width="0.730201"
			style="stroke-linejoin:bevel;stroke-linecap:square;"
			x1="402"
			x2="392"
			y1="80"
			y2="74"/>

		<line
			fill="rgb(0, 0, 0)"
			stroke="rgb(0, 0, 0)"
			stroke-width="0.730201"
			style="stroke-linejoin:bevel;stroke-linecap:square;"
			x1="401"
			x2="402"
			y1="68"
			y2="80"/>

		<polyline
			fill="none"
			points="390, 59 391, 61 391, 61 391, 62 392, 62 392, 62 392, 63 392, 63 393, 64 393, 64 394, 65 394, 66 394, 66 394, 67 395, 67 395, 67 395, 68 395, 68 396, 70 396, 70 397, 71 397, 71 397, 72 398, 73 398, 74 399, 75 399, 76 400, 76 400, 78 400, 78 400, 78 402, 80 "
			stroke="rgb(0, 0, 0)"
			stroke-dasharray="14.604027, 7.302013"
			stroke-width="0.730201"
			style="stroke-linejoin:bevel;stroke-linecap:square;"/>

		<text
			fill="rgb(0, 0, 0)"
			font-family="Arial"
			font-size="7.302013"
			text-anchor="middle"
			x="395"
			y="67.281879">
			«include»
		</text>

	</g>

	<g>

		<polyline
			fill="none"
			points="37, 248 56, 242 56, 242 64, 239 74, 236 84, 233 95, 230 105, 226 116, 223 125, 220 133, 218 133, 218 152, 212 152, 212 172, 206 172, 206 180, 203 189, 200 200, 197 211, 194 221, 191 232, 187 241, 184 249, 182 249, 182 268, 176 "
			stroke="rgb(0, 0, 0)"
			stroke-width="0.730201"
			style="stroke-linejoin:bevel;stroke-linecap:square;"/>

	</g>

	<g>

		<line
			fill="rgb(0, 0, 0)"
			stroke="rgb(0, 0, 0)"
			stroke-width="0.730201"
			style="stroke-linejoin:bevel;stroke-linecap:square;"
			x1="430"
			x2="440"
			y1="173"
			y2="168"/>

		<line
			fill="rgb(0, 0, 0)"
			stroke="rgb(0, 0, 0)"
			stroke-width="0.730201"
			style="stroke-linejoin:bevel;stroke-linecap:square;"
			x1="440"
			x2="430"
			y1="178"
			y2="173"/>

		<polyline
			fill="none"
			points="560, 174 549, 174 549, 174 547, 174 544, 174 541, 174 538, 174 535, 174 531, 174 528, 174 524, 174 521, 173 517, 173 515, 173 511, 173 508, 173 506, 173 506, 173 495, 173 495, 173 484, 173 484, 173 480, 173 475, 173 469, 173 463, 173 456, 173 451, 173 446, 173 441, 173 441, 173 430, 173 "
			stroke="rgb(0, 0, 0)"
			stroke-dasharray="14.604027, 7.302013"
			stroke-width="0.730201"
			style="stroke-linejoin:bevel;stroke-linecap:square;"/>

		<text
			fill="rgb(0, 0, 0)"
			font-family="Arial"
			font-size="7.302013"
			text-anchor="middle"
			x="506"
			y="173.281879">
			«extend»
		</text>

	</g>

	<g>

		<line
			fill="rgb(0, 0, 0)"
			stroke="rgb(0, 0, 0)"
			stroke-width="0.730201"
			style="stroke-linejoin:bevel;stroke-linecap:square;"
			x1="305"
			x2="305"
			y1="407"
			y2="418"/>

		<line
			fill="rgb(0, 0, 0)"
			stroke="rgb(0, 0, 0)"
			stroke-width="0.730201"
			style="stroke-linejoin:bevel;stroke-linecap:square;"
			x1="296"
			x2="305"
			y1="414"
			y2="407"/>

		<polyline
			fill="none"
			points="285, 450 286, 446 286, 446 287, 445 288, 444 288, 443 288, 442 289, 441 289, 440 290, 439 290, 438 291, 436 292, 435 292, 434 293, 433 293, 432 293, 431 293, 431 295, 428 295, 428 297, 424 297, 424 297, 423 298, 421 299, 419 300, 418 301, 415 302, 414 303, 412 303, 410 303, 410 305, 407 "
			stroke="rgb(0, 0, 0)"
			stroke-dasharray="14.604027, 7.302013"
			stroke-width="0.730201"
			style="stroke-linejoin:bevel;stroke-linecap:square;"/>

		<text
			fill="rgb(0, 0, 0)"
			font-family="Arial"
			font-size="7.302013"
			text-anchor="middle"
			x="293"
			y="430.281879">
			«extend»
		</text>

	</g>

</svg>

